<?xml version="1.0" encoding="utf-8"?>
<svg enable-background="new 0 0 64 64" viewBox="0 0 64 64" id="map-pin" xmlns="http://www.w3.org/2000/svg">
  <path d="M51.9,19.9C51.9,30.9,32,64,32,64S12.1,30.9,12.1,19.9S21,0,32,0S51.9,8.9,51.9,19.9z" style="fill: rgb(233, 92, 92);"/>
  <circle cx="32" cy="19.9" r="12.3" fill="#fff" transform="rotate(-76.714 32.003 19.925)"/>
  <g transform="matrix(1, 0, 0, 1, 20, 8)" fill="none"  stroke="#000"  stroke-width="1.5"  stroke-linecap="round"  stroke-linejoin="round">
    <path d="M4 6h5.426a1 1 0 0 1 .863 .496l1.064 1.823a3 3 0 0 0 1.896 1.407l4.677 1.114a4 4 0 0 1 3.074 3.89v2.27a1 1 0 0 1 -1 1h-16a1 1 0 0 1 -1 -1v-10a1 1 0 0 1 1 -1z" />
    <path d="M14 13l1 -2" />
    <path d="M8 18v-1a4 4 0 0 0 -4 -4h-1" />
    <path d="M10 12l1.5 -3" />
  </g>
</svg>