<?xml version="1.0" encoding="utf-8"?>
<svg enable-background="new 0 0 64 64" viewBox="0 0 64 64" id="map-pin" xmlns="http://www.w3.org/2000/svg">
  <path d="M51.9,19.9C51.9,30.9,32,64,32,64S12.1,30.9,12.1,19.9S21,0,32,0S51.9,8.9,51.9,19.9z" style="fill: rgb(233, 92, 92);"/>
  <circle cx="32" cy="19.9" r="12.3" fill="#fff" transform="rotate(-76.714 32.003 19.925)"/>
  <g transform="matrix(0.9, 0, 0, 0.9, 21, 9)" fill="none"  stroke="#000"  stroke-width="1.5"  stroke-linecap="round"  stroke-linejoin="round">
    <path d="M6 17m-2 0a2 2 0 1 0 4 0a2 2 0 1 0 -4 0" />
    <path d="M18 17m-2 0a2 2 0 1 0 4 0a2 2 0 1 0 -4 0" />
    <path d="M4 17h-2v-11a1 1 0 0 1 1 -1h14a5 7 0 0 1 5 7v5h-2m-4 0h-8" />
    <path d="M16 5l1.5 7l4.5 0" />
    <path d="M2 10l15 0" />
    <path d="M7 5l0 5" />
    <path d="M12 5l0 5" />
  </g>
</svg>