<?xml version="1.0" encoding="utf-8"?>
<svg enable-background="new 0 0 64 64" viewBox="0 0 64 64" id="map-pin" xmlns="http://www.w3.org/2000/svg">
  <path d="M51.9,19.9C51.9,30.9,32,64,32,64S12.1,30.9,12.1,19.9S21,0,32,0S51.9,8.9,51.9,19.9z" style="fill: rgb(233, 92, 92);"/>
  <circle cx="32" cy="19.9" r="12.3" fill="#fff" transform="rotate(-76.714 32.003 19.925)"/>
  <g transform="matrix(1, 0, 0, 1, -0.456, 0.072462)">
    <path d="M 23.456 18.926 L 24.456 18.926 M 32.456 9.926 L 32.456 10.926 M 40.456 18.926 L 41.456 18.926 M 26.056 12.526 L 26.756 13.226 M 38.856 12.526 L 38.156 13.226" style="fill: none; stroke: rgb(0, 0, 0); stroke-linecap: round;"/>
    <path d="M 29.456 22.926 C 26.376 20.617 26.952 15.84 30.491 14.328 C 34.031 12.816 37.88 15.703 37.42 19.524 C 37.257 20.879 36.547 22.108 35.456 22.926 C 34.664 23.71 34.292 24.824 34.456 25.926 C 34.456 27.466 32.789 28.428 31.456 27.658 C 30.837 27.301 30.456 26.641 30.456 25.926 C 30.619 24.824 30.247 23.71 29.456 22.926" style="fill: none; stroke: rgb(0, 0, 0); stroke-linecap: round;"/>
    <path d="M 30.156 23.926 L 34.756 23.926" style="fill: none; stroke: rgb(0, 0, 0); stroke-linecap: round;"/>
  </g>
</svg>