<?xml version="1.0" encoding="utf-8"?>
<svg enable-background="new 0 0 64 64" viewBox="0 0 64 64" id="map-pin" xmlns="http://www.w3.org/2000/svg">
  <path d="M51.9,19.9C51.9,30.9,32,64,32,64S12.1,30.9,12.1,19.9S21,0,32,0S51.9,8.9,51.9,19.9z" style="fill: rgb(233, 92, 92);"/>
  <circle cx="32" cy="19.9" r="12.3" fill="#fff" transform="rotate(-76.714 32.003 19.925)"/>
  <g transform="matrix(0.9, 0, 0, 0.9, 21, 10)" fill="none"  stroke="#000"  stroke-width="1.5"  stroke-linecap="round"  stroke-linejoin="round">
    <path d="M5 3h1a1 1 0 0 1 1 1v2h3v-2a1 1 0 0 1 1 -1h2a1 1 0 0 1 1 1v2h3v-2a1 1 0 0 1 1 -1h1a1 1 0 0 1 1 1v4.394a2 2 0 0 1 -.336 1.11l-1.328 1.992a2 2 0 0 0 -.336 1.11v7.394a1 1 0 0 1 -1 1h-10a1 1 0 0 1 -1 -1v-7.394a2 2 0 0 0 -.336 -1.11l-1.328 -1.992a2 2 0 0 1 -.336 -1.11v-4.394a1 1 0 0 1 1 -1z" />
    <path d="M10 21v-5a2 2 0 1 1 4 0v5" />
  </g>
</svg>